<?xml version="1.0" standalone="no"?>
<!DOCTYPE svg PUBLIC "-//W3C//DTD SVG 20010904//EN"
 "http://www.w3.org/TR/2001/REC-SVG-20010904/DTD/svg10.dtd">
<svg version="1.0" xmlns="http://www.w3.org/2000/svg"
 width="736.000000pt" height="736.000000pt" viewBox="0 0 736.000000 736.000000"
 preserveAspectRatio="xMidYMid meet">

<g transform="translate(0.000000,736.000000) scale(0.100000,-0.100000)"
fill="#000000" stroke="none">
<path d="M5172 5287 c-56 -113 -99 -147 -404 -317 -150 -84 -297 -171 -326
-192 -65 -48 -125 -138 -152 -226 -19 -60 -20 -94 -20 -546 0 -379 -3 -495
-15 -549 -51 -244 -238 -422 -485 -464 -81 -14 -99 -14 -182 0 -394 67 -610
486 -433 840 106 210 326 338 560 324 96 -5 205 -41 281 -91 30 -20 56 -36 59
-36 3 0 4 244 3 542 l-3 543 -65 12 c-489 90 -962 -33 -1337 -348 -209 -176
-393 -448 -477 -704 -189 -579 -40 -1201 391 -1630 119 -119 249 -211 408
-290 143 -71 237 -104 389 -137 87 -19 131 -22 316 -22 185 0 229 3 316 22
290 63 556 200 762 392 508 473 651 1221 352 1845 -78 164 -163 284 -304 433
-33 34 -57 64 -55 65 2 2 45 32 94 67 194 138 242 179 284 241 50 75 83 178
79 245 l-3 49 -33 -68z m-2267 -1932 c68 -254 270 -463 531 -549 l93 -31 -159
-235 c-88 -129 -164 -238 -168 -242 -12 -12 -227 99 -319 165 -173 125 -326
306 -426 505 -51 102 -59 125 -47 132 8 5 116 78 240 163 124 85 228 155 231
156 3 1 14 -28 24 -64z"/>
</g>
</svg>
